<?xml version="1.0" encoding="UTF-8"?>
<svg id="Capa_1" data-name="Capa 1" xmlns="http://www.w3.org/2000/svg" viewBox="0 0 130 130">
  <defs>
    <style>
      .cls-1, .cls-2 {
        stroke-width: 5px;
      }

      .cls-1, .cls-2, .cls-3, .cls-4 {
        stroke: #43c61e;
        stroke-miterlimit: 10;
      }

      .cls-1, .cls-2, .cls-4 {
        fill: none;
      }

      .cls-2 {
        stroke-linecap: round;
      }

      .cls-3 {
        fill: #fff;
      }

      .cls-3, .cls-4 {
        stroke-width: 4px;
      }

      .cls-5 {
        font-family: FranklinGothic-Heavy, 'Franklin Gothic Heavy';
        font-size: 21px;
        font-weight: 800;
      }

      .cls-5, .cls-6 {
        fill: #43c61e;
      }
    </style>
  </defs>
  <circle class="cls-6" cx="65" cy="65" r="65"/>
  <circle class="cls-3" cx="65" cy="65" r="58"/>
  <path class="cls-6" d="m103.98,73.16c3.77.23,4.37,2.84,4.34,6.53-.04,5.85-1.86,10.02-5.19,13.63-1.48,1.6-5.15,2.76-6.79,1.25-7.15-6.6-17.89-14.95-24.94-21.66l32.57.25Z"/>
  <path class="cls-6" d="m25.61,73.16c-3.77.23-4.37,2.84-4.34,6.53.04,5.85,1.86,10.02,5.19,13.63,1.48,1.6,5.15,2.76,6.79,1.25,7.15-6.6,17.89-14.95,24.94-21.66l-32.57.25Z"/>
  <path class="cls-6" d="m39.98,99.62c-2.35,2.95-.82,5.14,1.94,7.6,4.37,3.89,8.69,5.33,13.6,5.28,2.18-.02,5.5-1.97,5.48-4.21-.11-9.73.88-23.3.63-33.03l-21.64,24.35Z"/>
  <path class="cls-6" d="m71.57,107.9c.7,3.71,3.36,3.98,7.02,3.49,5.8-.77,9.71-3.11,12.87-6.86,1.41-1.67,2.09-5.46.39-6.89-7.45-6.26-17.08-15.87-24.62-22.02l4.34,32.29Z"/>
  <path class="cls-4" d="m83.72,57c-2.84-7.59-10.14-13-18.72-13s-15.88,5.41-18.72,13h37.43Z"/>
  <path class="cls-2" d="m38.98,30.02c-7.51,5.38-13.21,13.12-16.03,22.13"/>
  <path class="cls-2" d="m90.95,30.02c7.51,5.38,13.21,13.12,16.03,22.13"/>
  <path class="cls-4" d="m65,36c-16.02,0-29,12.98-29,29h58c0-16.02-12.98-29-29-29Z"/>
  <text class="cls-5" transform="translate(47.76 31.37) rotate(-17.44)"><tspan x="0" y="0">F</tspan></text>
  <text class="cls-5" transform="translate(59.26 27.97) rotate(.33)"><tspan x="0" y="0">T</tspan></text>
  <text class="cls-5" transform="translate(69.64 27.72) rotate(20.18)"><tspan x="0" y="0">R</tspan></text>
  <path class="cls-1" d="m118.24,86.35c2.69-7.03,4.88-14.26,4.76-21.35H7c-.41,23.31,14.61,45.44,37.65,54.24,29.41,11.24,62.35-3.49,73.59-32.89Z"/>
</svg>