<?xml version="1.0" encoding="UTF-8"?>
<svg id="Capa_1" data-name="Capa 1" xmlns="http://www.w3.org/2000/svg" viewBox="0 0 130 130">
  <defs>
    <style>
      .cls-1 {
        fill: #fff;
      }

      .cls-2, .cls-3 {
        stroke-width: 5px;
      }

      .cls-2, .cls-3, .cls-4 {
        fill: none;
        stroke: #43c61e;
        stroke-miterlimit: 10;
      }

      .cls-3 {
        stroke-linecap: round;
      }

      .cls-4 {
        stroke-width: 4px;
      }

      .cls-5 {
        font-family: FranklinGothic-Heavy, 'Franklin Gothic Heavy';
        font-size: 21px;
        font-weight: 800;
      }

      .cls-5, .cls-6 {
        fill: #43c61e;
      }
    </style>
  </defs>
  <circle class="cls-1" cx="64.94" cy="64.81" r="62.44"/>
  <path class="cls-6" d="m103.98,74.16c3.77.23,4.37,2.84,4.34,6.53-.04,5.85-1.86,10.02-5.19,13.63-1.48,1.6-5.15,2.76-6.79,1.25-7.15-6.6-17.89-14.95-24.94-21.66l32.57.25Z"/>
  <path class="cls-6" d="m25.61,74.16c-3.77.23-4.37,2.84-4.34,6.53.04,5.85,1.86,10.02,5.19,13.63,1.48,1.6,5.15,2.76,6.79,1.25,7.15-6.6,17.89-14.95,24.94-21.66l-32.57.25Z"/>
  <path class="cls-6" d="m40.18,99.35c-2.51,2.81-1.11,5.09,1.51,7.7,4.15,4.13,8.38,5.81,13.28,6.03,2.18.1,5.6-1.66,5.7-3.89.43-9.72,2.18-23.21,2.46-32.94l-22.96,23.11Z"/>
  <path class="cls-6" d="m69.36,108.75c.49,3.74,3.14,4.16,6.82,3.87,5.83-.45,9.87-2.56,13.24-6.13,1.5-1.59,2.4-5.33.77-6.86-7.09-6.67-16.17-16.79-23.36-23.36l2.53,32.48Z"/>
  <path class="cls-4" d="m83.72,57c-2.84-7.59-10.14-13-18.72-13s-15.88,5.41-18.72,13h37.43Z"/>
  <path class="cls-3" d="m38.98,30.02c-7.51,5.38-13.21,13.12-16.03,22.13"/>
  <path class="cls-3" d="m90.95,30.02c7.51,5.38,13.21,13.12,16.03,22.13"/>
  <path class="cls-4" d="m65,36c-16.02,0-29,12.98-29,29h58c0-16.02-12.98-29-29-29Z"/>
  <text class="cls-5" transform="translate(47.76 31.37) rotate(-17.44)"><tspan x="0" y="0">F</tspan></text>
  <text class="cls-5" transform="translate(59.26 27.97) rotate(.33)"><tspan x="0" y="0">T</tspan></text>
  <text class="cls-5" transform="translate(69.64 27.72) rotate(20.18)"><tspan x="0" y="0">R</tspan></text>
  <path class="cls-2" d="m118.24,87.35c2.69-7.03,4.88-14.26,4.76-21.35H7c-.41,23.31,14.61,45.44,37.65,54.24,29.41,11.24,62.35-3.49,73.59-32.89Z"/>
  <path class="cls-6" d="m65,0C29.1,0,0,29.1,0,65s29.1,65,65,65,65-29.1,65-65S100.9,0,65,0Zm0,123c-32.03,0-58-25.97-58-58S32.97,7,65,7s58,25.97,58,58-25.97,58-58,58Z"/>
</svg>