<?xml version="1.0" encoding="UTF-8"?>
<svg id="Capa_1" data-name="Capa 1" xmlns="http://www.w3.org/2000/svg" viewBox="0 0 133 133">
  <defs>
    <style>
      .cls-1 {
        stroke-linejoin: round;
      }

      .cls-1, .cls-2, .cls-3, .cls-4 {
        stroke: #43c61e;
        stroke-width: 3px;
      }

      .cls-1, .cls-3, .cls-4 {
        fill: none;
      }

      .cls-2 {
        fill: #fff;
      }

      .cls-2, .cls-3, .cls-4 {
        stroke-miterlimit: 10;
      }

      .cls-3 {
        stroke-linecap: round;
      }

      .cls-5 {
        fill: #43c61e;
        font-family: FranklinGothic-Heavy, 'Franklin Gothic Heavy';
        font-size: 21px;
        font-weight: 800;
      }
    </style>
  </defs>
  <circle class="cls-2" cx="66.5" cy="66.5" r="65"/>
  <path class="cls-1" d="m109.28,72.77c4.13.25,4.79,3.11,4.77,7.16-.04,6.42-2.04,10.99-5.69,14.95-1.62,1.76-5.65,3.03-7.45,1.37-7.84-7.24-19.62-16.4-27.36-23.76l35.73.27Z"/>
  <path class="cls-1" d="m23.32,72.77c-4.13.25-4.79,3.11-4.77,7.16.04,6.42,2.04,10.99,5.69,14.95,1.62,1.76,5.65,3.03,7.45,1.37,7.84-7.24,19.62-16.4,27.36-23.76l-35.73.27Z"/>
  <path class="cls-1" d="m39.07,102.79c-2.58,3.23-.9,5.64,2.13,8.34,4.79,4.27,9.53,5.85,14.91,5.79,2.39-.02,6.03-2.16,6.01-4.61-.12-10.68.96-25.55.69-36.23l-23.73,26.71Z"/>
  <path class="cls-1" d="m73.73,111.88c.77,4.07,3.69,4.36,7.7,3.83,6.36-.85,10.65-3.41,14.12-7.52,1.54-1.83,2.3-5.98.42-7.56-8.17-6.87-18.74-17.4-27.01-24.16l4.76,35.41Z"/>
  <path class="cls-4" d="m119.74,87.85c2.69-7.03,4.88-14.26,4.76-21.35H8.5c-.41,23.31,14.61,45.44,37.65,54.24,29.41,11.24,62.35-3.49,73.59-32.89Z"/>
  <path class="cls-4" d="m85.22,58.5c-2.84-7.59-10.14-13-18.72-13s-15.88,5.41-18.72,13h37.43Z"/>
  <circle class="cls-4" cx="66.5" cy="66.5" r="58"/>
  <path class="cls-3" d="m40.48,31.52c-7.51,5.38-13.21,13.12-16.03,22.13"/>
  <path class="cls-3" d="m92.45,31.52c7.51,5.38,13.21,13.12,16.03,22.13"/>
  <path class="cls-4" d="m66.5,37.5c-16.02,0-29,12.98-29,29h58c0-16.02-12.98-29-29-29Z"/>
  <text class="cls-5" transform="translate(49.26 33.86) rotate(-17.44)"><tspan x="0" y="0">F</tspan></text>
  <text class="cls-5" transform="translate(60.76 30.46) rotate(.33)"><tspan x="0" y="0">T</tspan></text>
  <text class="cls-5" transform="translate(71.14 30.22) rotate(20.18)"><tspan x="0" y="0">R</tspan></text>
</svg>